HIERARCHY
ROOT Hips
{
	OFFSET	0.00	0.00	0.00
	CHANNELS 6 Xposition Yposition Zposition Zrotation Xrotation Yrotation
	JOINT LeftUpLeg
	{
		OFFSET	 0.126116	-0.014019	-0.065224
		CHANNELS 3 Zrotation Xrotation Yrotation
		JOINT LeftLeg
		{
			OFFSET	 0.000000	 0.000000	 0.569914
			CHANNELS 3 Zrotation Xrotation Yrotation
			JOINT LeftFoot
			{
				OFFSET	 0.000000	 0.000000	 0.544423
				CHANNELS 3 Zrotation Xrotation Yrotation
				JOINT LeftToeBase
				{
					OFFSET	 0.000000	 0.000000	 0.207117
					CHANNELS 3 Zrotation Xrotation Yrotation
					End Site
					{
						OFFSET	 0.000000	 0.000000	 0.207117
					}
				}
			}
		}
	}
	JOINT RightUpLeg
	{
		OFFSET	-0.124023	-0.008373	-0.065224
		CHANNELS 3 Zrotation Xrotation Yrotation
		JOINT RightLeg
		{
			OFFSET	 0.000000	 0.000000	 0.570047
			CHANNELS 3 Zrotation Xrotation Yrotation
			JOINT RightFoot
			{
				OFFSET	 0.000000	 0.000000	 0.544354
				CHANNELS 3 Zrotation Xrotation Yrotation
				JOINT RightToeBase
				{
					OFFSET	 0.000000	 0.000000	 0.207540
					CHANNELS 3 Zrotation Xrotation Yrotation
					End Site
					{
						OFFSET	 0.000000	 0.000000	 0.207540
					}
				}
			}
		}
	}
	JOINT Spine
	{
		OFFSET	 0.000184	-0.007763	 0.117403
		CHANNELS 3 Zrotation Xrotation Yrotation
		JOINT Spine1
		{
			OFFSET	 0.000000	 0.000000	 0.137269
			CHANNELS 3 Zrotation Xrotation Yrotation
			JOINT Spine2
			{
				OFFSET	 0.000000	 0.000000	 0.156879
				CHANNELS 3 Zrotation Xrotation Yrotation
				JOINT LeftShoulder
				{
					OFFSET	 0.080501	-0.002496	 0.160144
					CHANNELS 3 Zrotation Xrotation Yrotation
					JOINT LeftArm
					{
						OFFSET	 0.000000	 0.000000	 0.164363
						CHANNELS 3 Zrotation Xrotation Yrotation
						JOINT LeftForeArm
						{
							OFFSET	 0.000000	 0.000000	 0.364576
							CHANNELS 3 Zrotation Xrotation Yrotation
							JOINT LeftHand
							{
								OFFSET	 0.000000	 0.000000	 0.360812
								CHANNELS 3 Zrotation Xrotation Yrotation
								JOINT LeftHandIndex1
								{
									OFFSET	 0.000000	 0.000000	 0.086006
									CHANNELS 3 Zrotation Xrotation Yrotation
									JOINT LeftHandIndex2
									{
										OFFSET	 0.000000	 0.000000	 0.047236
										CHANNELS 3 Zrotation Xrotation Yrotation
										JOINT LeftHandIndex3
										{
											OFFSET	-0.004284	-0.000551	 0.038166
											CHANNELS 3 Zrotation Xrotation Yrotation
											End Site
											{
												OFFSET	-0.004284	-0.000551	 0.038166
											}
										}
									}
								}
							}
						}
					}
				}
				JOINT Neck
				{
					OFFSET	 0.000000	 0.000000	 0.176489
					CHANNELS 3 Zrotation Xrotation Yrotation
					JOINT Head
					{
						OFFSET	 0.000000	-0.001747	 0.077940
						CHANNELS 3 Zrotation Xrotation Yrotation
						End Site
						{
							OFFSET	 0.000000	-0.001747	 0.077940
						}
					}
				}
				JOINT RightShoulder
				{
					OFFSET	-0.080363	 0.000306	 0.159706
					CHANNELS 3 Zrotation Xrotation Yrotation
					JOINT RightArm
					{
						OFFSET	 0.000000	 0.000000	 0.164196
						CHANNELS 3 Zrotation Xrotation Yrotation
						JOINT RightForeArm
						{
							OFFSET	 0.000000	 0.000000	 0.365611
							CHANNELS 3 Zrotation Xrotation Yrotation
							JOINT RightHand
							{
								OFFSET	 0.000000	 0.000000	 0.360648
								CHANNELS 3 Zrotation Xrotation Yrotation
								JOINT RightHandIndex1
								{
									OFFSET	 0.000000	 0.000000	 0.069977
									CHANNELS 3 Zrotation Xrotation Yrotation
									JOINT RightHandIndex2
									{
										OFFSET	 0.000000	 0.000000	 0.052305
										CHANNELS 3 Zrotation Xrotation Yrotation
										JOINT RightHandIndex3
										{
											OFFSET	 0.009002	-0.000782	 0.042196
											CHANNELS 3 Zrotation Xrotation Yrotation
											End Site
											{
												OFFSET	 0.009002	-0.000782	 0.042196
											}
										}
									}
								}
							}
						}
					}
				}
			}
		}
	}
}
MOTION
Frames:    8
Frame Time: 0.03333334
-0.058429	-2.222681	 1.239007	 3.841960	-1.889269	-3.618347	 1.320175	-7.798153	-171.244000	 0.118665	-28.816070	-0.126117	 22.866730	 70.709350	-25.457470	-2.371860	 31.195920	-0.060470	-2.806746	-28.178210	-175.137000	 10.047020	-54.188480	 8.827650	 8.432193	 63.304280	-3.812440	 2.357653	 33.192930	 0.107713	-8.921722	 8.204107	 1.314164	 1.154687	 5.497481	 2.584071	-6.828941	-5.998213	-3.694509	-93.721830	 58.806740	 175.868100	 19.297190	 39.781190	-38.473910	-13.521910	 2.523972	-10.552450	 3.509782	-44.259080	-2.232542	-4.869041	 19.268420	-2.791944	-3.891259	 21.348120	 2.212641	-4.806230	 5.569475	 0.145565	-0.138593	-4.999743	 0.151911	-8.749249	 0.317791	 2.126997	 89.849780	 61.533110	-179.839400	-20.776090	 52.643230	 7.957705	 11.332900	 3.159738	 26.716180	-10.811220	-30.242240	-2.296282	 6.306959	 26.179520	-0.576531	 1.705540	 46.114690	-6.832064	 0.310858	 25.213150	 3.678885
-0.060125	-2.258142	 1.239852	 4.868976	-1.422316	-3.602398	 0.215378	-6.330182	-171.485000	 0.786755	-28.179020	 0.204964	 22.833380	 71.452180	-26.037220	-2.369960	 31.521170	-0.067798	-4.985444	-30.717750	-175.061700	 10.355310	-50.072340	 8.566348	 10.743380	 67.659760	-7.210197	 2.358659	 33.045870	 0.104286	-9.191932	 8.015738	 1.164854	 1.161097	 5.263291	 2.720746	-7.301829	-5.940576	-3.819561	-93.913560	 58.981190	 175.439000	 18.859210	 37.717170	-40.168420	-14.742620	 2.533586	-10.546250	 3.284499	-46.289610	-3.841493	-4.869110	 19.247320	-2.786512	-3.884973	 21.428710	 2.206254	-4.808268	 5.545427	 0.146971	-0.082823	-5.066852	 0.180623	-9.014764	 0.311954	 1.889213	 89.786740	 61.639590	-179.989000	-20.268220	 53.568100	 6.069019	 11.016830	 3.069659	 26.567280	-11.732830	-31.134230	-3.064233	 6.295125	 25.001500	-0.545144	 1.867890	 44.842680	-6.977416	 0.512941	 24.334640	 3.575030
-0.062159	-2.299718	 1.238760	 5.882791	-0.608382	-3.667756	-0.848184	-4.921786	-171.703800	 1.190056	-27.510030	 0.386795	 22.828820	 72.265220	-26.350730	-2.368204	 31.812230	-0.074401	-7.601890	-33.609540	-175.271500	 10.667370	-44.180730	 8.017076	 14.395220	 71.259680	-12.348070	 2.359050	 32.989810	 0.102983	-9.217059	 7.524269	 0.969670	 1.162560	 5.097041	 3.012193	-7.815557	-5.925223	-4.019195	-94.152710	 59.019750	 174.923700	 17.853420	 35.260050	-41.881910	-15.233360	 2.532835	-10.536180	 3.979256	-48.303600	-4.509888	-4.862806	 19.417910	-2.799616	-3.872062	 21.593720	 2.193136	-4.803497	 5.601674	 0.143679	-0.029878	-5.111594	 0.244309	-9.332708	 0.329189	 1.697788	 89.698600	 61.747140	 179.800000	-19.615970	 54.550390	 3.634416	 10.340920	 2.878899	 27.004780	-13.189940	-31.859360	-4.023397	 6.272550	 23.286640	-0.555374	 2.071594	 43.150790	-7.158266	 0.855674	 22.812470	 3.404755
-0.063692	-2.336655	 1.236371	 6.350372	 0.097288	-3.969333	-1.327283	-3.504299	-171.665500	 1.385423	-26.749730	 0.464857	 23.361410	 73.290420	-27.035780	-2.366071	 32.156620	-0.082247	-8.758178	-35.546250	-175.283900	 10.730620	-38.153580	 7.156521	 16.948190	 71.170190	-16.340140	 2.360875	 32.715980	 0.096646	-8.885326	 6.988265	 1.052056	 1.192791	 5.249045	 3.224730	-8.190345	-5.973265	-4.193290	-94.331070	 58.962720	 174.551900	 16.737600	 33.174400	-43.331670	-15.892460	 2.529841	-10.515930	 5.269475	-49.867680	-3.258541	-4.849608	 19.730010	-2.815236	-3.855141	 21.808970	 2.175941	-4.793334	 5.721268	 0.136666	-0.008834	-5.168946	 0.301718	-9.621249	 0.345881	 1.642231	 89.585190	 61.886360	 179.526500	-18.888230	 55.321280	 1.634586	 9.324816	 2.565678	 27.364120	-14.998580	-31.989660	-5.349377	 6.244457	 21.599360	-0.607826	 2.224887	 41.802340	-7.293138	 1.222947	 21.136630	 3.230782
-0.065706	-2.378939	 1.232550	 6.570000	 0.572854	-4.320424	-1.629058	-1.500649	-171.628700	 1.510529	-25.947920	 0.506661	 23.804310	 74.255160	-27.550010	-2.360606	 32.994450	-0.101537	-8.362084	-36.601170	-174.939200	 10.177320	-31.101080	 5.699327	 26.109510	 73.118040	-26.453990	 2.355250	 33.535930	 0.115731	-8.424547	 6.496500	 1.241705	 1.236747	 5.736430	 3.310436	-8.506900	-6.070113	-4.304537	-94.453650	 58.888060	 174.302700	 15.257510	 31.255760	-44.756790	-16.552500	 2.521585	-10.488670	 6.614688	-50.742450	-1.530054	-4.830988	 20.114400	-2.822118	-3.830807	 22.116230	 2.151222	-4.775583	 5.929871	 0.124374	 0.015683	-5.253498	 0.336637	-9.879598	 0.349399	 1.568498	 89.473850	 62.004370	 179.255500	-17.788490	 56.000370	-0.426008	 8.006399	 2.140768	 27.284370	-17.176480	-31.759740	-7.239679	 6.206868	 19.597090	-0.686380	 2.462575	 39.572690	-7.499952	 1.655725	 19.103740	 3.037612
-0.069092	-2.429567	 1.226170	 6.827167	 0.714466	-4.640569	-2.053234	 1.276127	-171.723400	 1.698948	-25.249040	 0.574329	 23.367680	 74.881240	-27.180830	-2.345084	 35.104640	-0.151397	-7.630815	-38.074890	-174.511500	 10.211480	-25.324490	 4.739436	 33.583850	 73.178210	-34.943770	 2.340558	 35.455200	 0.161534	-8.100090	 6.442888	 1.404500	 1.257566	 5.987712	 3.440946	-8.789107	-6.121008	-4.434083	-94.528220	 58.886360	 174.144700	 13.535230	 29.835390	-46.027610	-16.752580	 2.500579	-10.443300	 7.520989	-51.462970	-0.517174	-4.836678	 20.422420	-2.946219	-3.800071	 22.500900	 2.120010	-4.745812	 6.278205	 0.103699	 0.077791	-5.358877	 0.352242	-10.068280	 0.427066	 1.330085	 89.382900	 61.998400	 179.036000	-16.175140	 56.456570	-2.983890	 6.583881	 1.691768	 26.802290	-19.275140	-31.323740	-9.408292	 6.172300	 17.210400	-0.705728	 2.764076	 36.478240	-7.757657	 2.154173	 16.687070	 2.831806
-0.073629	-2.475416	 1.218045	 7.077070	 0.661444	-4.594130	-2.545702	 3.778479	-172.201700	 2.055583	-25.172480	 0.724479	 21.077660	 74.515640	-25.001270	-2.311270	 38.788210	-0.243611	-7.282448	-40.890460	-174.615800	 10.242930	-23.845670	 4.493598	 26.987380	 69.815720	-28.761450	 2.337095	 35.869430	 0.171643	-7.960504	 6.532662	 1.333327	 1.306929	 6.180847	 3.456972	-9.003928	-6.113828	-4.521433	-94.531940	 59.071270	 174.106100	 12.124440	 29.132220	-47.109890	-16.717660	 2.474379	-10.392280	 7.707466	-51.938950	-0.412818	-4.862484	 20.555170	-3.135581	-3.775882	 22.801000	 2.095446	-4.709826	 6.696949	 0.078575	 0.146050	-5.443542	 0.312013	-10.141460	 0.562407	 1.127455	 89.357080	 61.799650	 178.981100	-14.810390	 56.545310	-5.535862	 5.480742	 1.310869	 27.061530	-20.721290	-30.691530	-10.967690	 6.175272	 15.113940	-0.553237	 2.948137	 34.428440	-7.912053	 2.569349	 14.615610	 2.674717
-0.080417	-2.530651	 1.208502	 7.360231	 0.374622	-3.968150	-2.812704	 6.699890	-173.495000	 1.967408	-25.791710	 0.702703	 16.655500	 72.539860	-19.997420	-2.215163	 45.946230	-0.448324	-6.125809	-43.259090	-174.957800	 8.037457	-23.556390	 3.522956	 15.159080	 63.276810	-14.378990	 2.339996	 35.521920	 0.163170	-7.886744	 6.598886	 0.731588	 1.350437	 6.597920	 3.456729	-9.233878	-6.042415	-4.675751	-94.479410	 59.305450	 174.179500	 10.861920	 28.569860	-48.138760	-16.804470	 2.437426	-10.316300	 7.965636	-51.250140	-0.230184	-4.887198	 20.671020	-3.315773	-3.758108	 23.019960	 2.077391	-4.656703	 7.310485	 0.041246	 0.228968	-5.478004	 0.255954	-10.162410	 0.760993	 1.205449	 89.354590	 61.515040	 178.985700	-13.568690	 56.409560	-7.895491	 4.367098	 0.903466	 27.263470	-22.018890	-29.439840	-12.047250	 6.237280	 12.797010	-0.146651	 3.088061	 32.781790	-8.027747	 2.986785	 12.482710	 2.530529
